<svg width="26" height="33" viewBox="0 0 26 33" fill="none" xmlns="http://www.w3.org/2000/svg">
<path d="M20.9224 7.73999H7.178C6.95201 7.73999 6.7688 7.9232 6.7688 8.14919V9.06963C6.7688 9.29562 6.95201 9.47883 7.178 9.47883H20.9224C21.1484 9.47883 21.3316 9.29562 21.3316 9.06963V8.14919C21.3316 7.9232 21.1484 7.73999 20.9224 7.73999Z" fill="#0036C1" fill-opacity="0.945098"/>
<path d="M20.9947 10.4932H11.5249C11.2989 10.4932 11.1157 10.6764 11.1157 10.9024V11.8228C11.1157 12.0488 11.2989 12.232 11.5249 12.232H20.9947C21.2207 12.232 21.4039 12.0488 21.4039 11.8228V10.9024C21.4039 10.6764 21.2207 10.4932 20.9947 10.4932Z" fill="#0036C1" fill-opacity="0.945098"/>
<path d="M20.9948 13.3914H4.64211C4.41612 13.3914 4.23291 13.5746 4.23291 13.8006V14.721C4.23291 14.947 4.41612 15.1302 4.64211 15.1302H20.9948C21.2207 15.1302 21.404 14.947 21.404 14.721V13.8006C21.404 13.5746 21.2207 13.3914 20.9948 13.3914Z" fill="#0036C1" fill-opacity="0.945098"/>
<path d="M4.58787 23.5527H18.3323C18.5582 23.5527 18.7415 23.3695 18.7415 23.1435V22.2231C18.7415 21.9971 18.5582 21.8139 18.3323 21.8139H4.58787C4.36188 21.8139 4.17867 21.9971 4.17867 22.2231V23.1435C4.17867 23.3695 4.36188 23.5527 4.58787 23.5527Z" fill="#0036C1" fill-opacity="0.945098"/>
<path d="M4.51535 20.7996H13.9851C14.2111 20.7996 14.3943 20.6164 14.3943 20.3904V19.4699C14.3943 19.2439 14.2111 19.0607 13.9851 19.0607H4.51535C4.28936 19.0607 4.10615 19.2439 4.10615 19.4699V20.3904C4.10615 20.6164 4.28936 20.7996 4.51535 20.7996Z" fill="#0036C1" fill-opacity="0.945098"/>
<path d="M4.51525 17.9014H20.8679C21.0939 17.9014 21.2771 17.7182 21.2771 17.4922V16.5717C21.2771 16.3457 21.0939 16.1625 20.8679 16.1625H4.51525C4.28926 16.1625 4.10605 16.3457 4.10605 16.5717V17.4922C4.10605 17.7182 4.28926 17.9014 4.51525 17.9014Z" fill="#0036C1" fill-opacity="0.945098"/>
<path d="M0.0135502 31.943C-0.0251097 29.907 0.0269898 0.167555 0.0693368 0.0990364C0.108052 0.0363939 3.79979 0 10.1158 0H20.1011L22.687 1.80598C24.1092 2.79927 25.3307 3.63421 25.4013 3.6614C25.5036 3.70076 25.5245 6.59596 25.5038 17.8651L25.4778 32.0194L12.7469 32.0454C2.59654 32.0662 0.0154957 32.0454 0.0135502 31.943ZM23.8883 17.5979L23.887 4.76449L21.6463 3.20194L19.4057 1.63939H10.5305H1.65538V16.0353V30.4313H12.7725H23.8897L23.8883 17.5979H23.8883V17.5979Z" fill="#0036C1" fill-opacity="0.945098"/>
</svg>
