<svg width="30" height="36" viewBox="0 0 30 36" fill="none" xmlns="http://www.w3.org/2000/svg">
<path d="M2 5H17.6077C17.8225 5 18.0315 5.06916 18.204 5.19726L23.5963 9.203C23.8503 9.39166 24 9.68937 24 10.0057V34C24 34.5523 23.5523 35 23 35H2C1.44772 35 1 34.5523 1 34V6C1 5.44772 1.44772 5 2 5Z" fill="white" stroke="#0A0336" stroke-width="2"/>
<path d="M7 1H22.6077C22.8225 1 23.0315 1.06916 23.204 1.19726L28.5963 5.203C28.8503 5.39166 29 5.68937 29 6.00574V30C29 30.5523 28.5523 31 28 31H7C6.44772 31 6 30.5523 6 30V2C6 1.44772 6.44772 1 7 1Z" fill="white" stroke="#0A0336" stroke-width="2"/>
<line x1="12" y1="10" x2="24" y2="10" stroke="#0A0336" stroke-width="2" stroke-linecap="round"/>
<line x1="22.5" y1="6.5" x2="28.5" y2="6.5" stroke="#0A0336" stroke-linecap="round"/>
<line x1="22.5" y1="6.5" x2="22.5" y2="0.5" stroke="#0A0336" stroke-linecap="round"/>
<line x1="12" y1="15" x2="24" y2="15" stroke="#0A0336" stroke-width="2" stroke-linecap="round"/>
<line x1="12" y1="20" x2="24" y2="20" stroke="#0A0336" stroke-width="2" stroke-linecap="round"/>
<line x1="12" y1="25" x2="24" y2="25" stroke="#0A0336" stroke-width="2" stroke-linecap="round"/>
</svg>
